<svg xmlns="http://www.w3.org/2000/svg" width="28.467" height="29.449" viewBox="0 0 28.467 29.449"><defs><style>.a{fill:#b0c1d1;}</style></defs><g transform="translate(0)"><g transform="translate(0)"><path class="a" d="M43.158,375.468a.491.491,0,0,0-.491.491v.982a.491.491,0,0,0,.982,0v-.982A.491.491,0,0,0,43.158,375.468Z" transform="translate(-40.704 -353.872)"/><path class="a" d="M43.158,426.668a.491.491,0,0,0-.491.491v.982a.491.491,0,1,0,.982,0v-.982A.491.491,0,0,0,43.158,426.668Z" transform="translate(-40.704 -402.127)"/><path class="a" d="M43.158,324.268a.491.491,0,0,0-.491.491v.982a.491.491,0,0,0,.982,0v-.982A.491.491,0,0,0,43.158,324.268Z" transform="translate(-40.704 -305.617)"/><path class="a" d="M77.291,375.468a.491.491,0,0,0-.491.491v.982a.491.491,0,0,0,.982,0v-.982A.491.491,0,0,0,77.291,375.468Z" transform="translate(-72.874 -353.872)"/><path class="a" d="M77.291,324.268a.491.491,0,0,0-.491.491v.982a.491.491,0,0,0,.982,0v-.982A.491.491,0,0,0,77.291,324.268Z" transform="translate(-72.874 -305.617)"/><path class="a" d="M77.291,426.668a.491.491,0,0,0-.491.491v.982a.491.491,0,1,0,.982,0v-.982A.491.491,0,0,0,77.291,426.668Z" transform="translate(-72.874 -402.127)"/><path class="a" d="M36.511,5.4h-.982V3.926a.491.491,0,0,0-.491-.491H32.094a.491.491,0,0,0-.491.491V5.4h-.982a.491.491,0,0,0-.491.491v7.853H29.64V12.27a.491.491,0,0,0-.491-.491h-.491v-.491a.491.491,0,0,0-.982,0v.491h-.491a.491.491,0,0,0-.491.491v1.472H25.222V3.926a.491.491,0,0,0-.491-.491H23.259V.491A.491.491,0,0,0,22.768,0h-5.89a.491.491,0,0,0-.491.491V3.436H14.915a.491.491,0,0,0-.491.491V16.688h-.982V15.215a.491.491,0,0,0-.491-.491H10.007a.491.491,0,0,0-.491.491v1.472H9.026a.491.491,0,0,0-.491.491V28.958a.491.491,0,0,0,.491.491H36.511A.491.491,0,0,0,37,28.958V5.89A.491.491,0,0,0,36.511,5.4ZM22.278,5.89a.491.491,0,1,1,.982,0v7.853h-.982V5.89ZM20.314,2.454a.491.491,0,0,1,.982,0V3.926a.491.491,0,0,1-.982,0Zm0,3.436a.491.491,0,0,1,.982,0v7.853h-.982V5.89ZM18.351,2.454a.491.491,0,0,1,.982,0V3.926a.491.491,0,0,1-.982,0ZM16.388,5.89a.491.491,0,1,1,.982,0v10.8h-.982V5.89Zm1.963,21.6H16.879a.491.491,0,1,1,0-.982h1.472Zm0-1.963H16.879a.491.491,0,1,1,0-.982h1.472Zm0-1.963H16.879a.491.491,0,1,1,0-.982h1.472Zm0-1.963H16.879a.491.491,0,1,1,0-.982h1.472Zm0-2.945H14.915a.491.491,0,0,0-.491.491v9.325H9.517v-10.8h8.835Zm0-4.417V5.89a.491.491,0,0,1,.982,0v7.853h-.491A.491.491,0,0,0,18.351,14.234ZM30.131,28.467h-.982V16.2a.491.491,0,1,0-.982,0v12.27h-.982V16.2a.491.491,0,1,0-.982,0v12.27h-.982V16.2a.491.491,0,1,0-.982,0v12.27h-.982V16.2a.491.491,0,1,0-.982,0v12.27H21.3V16.2a.491.491,0,1,0-.982,0v12.27h-.982V14.724h10.8ZM33.075,26.6a.491.491,0,0,1-.982,0v-.982a.491.491,0,0,1,.982,0Zm0-2.945a.491.491,0,0,1-.982,0v-.982a.491.491,0,0,1,.982,0Zm0-2.945a.491.491,0,0,1-.982,0v-.982a.491.491,0,0,1,.982,0Zm0-2.945a.491.491,0,0,1-.982,0v-.982a.491.491,0,0,1,.982,0Zm0-2.945a.491.491,0,0,1-.982,0v-.982a.491.491,0,0,1,.982,0Zm0-2.945a.491.491,0,0,1-.982,0v-.982a.491.491,0,1,1,.982,0Zm0-2.945a.491.491,0,0,1-.982,0V7.949a.491.491,0,0,1,.982,0ZM35.039,26.6a.491.491,0,1,1-.982,0v-.982a.491.491,0,1,1,.982,0Zm0-2.945a.491.491,0,1,1-.982,0v-.982a.491.491,0,1,1,.982,0Zm0-2.945a.491.491,0,1,1-.982,0v-.982a.491.491,0,1,1,.982,0Zm0-2.945a.491.491,0,1,1-.982,0v-.982a.491.491,0,1,1,.982,0Zm0-2.945a.491.491,0,1,1-.982,0v-.982a.491.491,0,1,1,.982,0Zm0-2.945a.491.491,0,1,1-.982,0v-.982a.491.491,0,1,1,.982,0Zm0-2.945a.491.491,0,1,1-.982,0V7.949a.491.491,0,1,1,.982,0Z" transform="translate(-8.535)"/></g></g></svg>