<svg xmlns="http://www.w3.org/2000/svg" width="24.31" height="24.261" viewBox="0 0 24.31 24.261"><defs><style>.a{fill:#b0c1d1;}</style></defs><path class="a" d="M231.816,349.515c1.859-.264,3.489-2.2,4.514-5.07a22.064,22.064,0,0,0-4.514-.531Zm0,0" transform="translate(-219.227 -325.254)"/><path class="a" d="M279.877,362.014c.11-.032.219-.064.328-.1.092-.03.182-.061.272-.093.107-.037.213-.075.32-.115.09-.034.18-.071.27-.107l.309-.13c.089-.039.178-.08.267-.122s.2-.1.3-.146.174-.09.261-.136.194-.105.29-.16.171-.1.255-.15l.281-.174c.083-.053.167-.107.249-.163s.182-.126.272-.19.161-.116.24-.174.176-.136.263-.206.155-.123.231-.186.17-.147.254-.221.148-.13.22-.2.164-.158.245-.237.141-.137.209-.208l.038-.041a14.6,14.6,0,0,0-2.977-1.146,10.781,10.781,0,0,1-2.777,4.509l.106-.026C279.695,362.07,279.786,362.041,279.877,362.014Zm0,0" transform="translate(-264.317 -338.209)"/><path class="a" d="M341.645,231.684h-5.209a22.532,22.532,0,0,1-.877,6.011,15.111,15.111,0,0,1,3.3,1.312,12.138,12.138,0,0,0,2.789-7.323Zm0,0" transform="translate(-317.335 -219.119)"/><path class="a" d="M231.816,114.739h5.642a21.735,21.735,0,0,0-.855-5.8,22.885,22.885,0,0,1-4.787.571Zm0,0" transform="translate(-219.227 -103.043)"/><path class="a" d="M231.816.316v5.6a22.081,22.081,0,0,0,4.514-.531C235.3,2.521,233.675.581,231.816.316Zm0,0" transform="translate(-219.227 -0.316)"/><path class="a" d="M231.816,236.91a22.9,22.9,0,0,1,4.787.571,21.736,21.736,0,0,0,.855-5.8h-5.642Zm0,0" transform="translate(-219.226 -219.119)"/><path class="a" d="M338.855,80.844a15.111,15.111,0,0,1-3.3,1.312,22.529,22.529,0,0,1,.877,6.011h5.209A12.142,12.142,0,0,0,338.855,80.844Zm0,0" transform="translate(-317.335 -76.471)"/><path class="a" d="M285.214,10.159l-.037-.04c-.069-.071-.14-.139-.21-.208s-.161-.16-.244-.237-.146-.13-.22-.2-.168-.15-.255-.222-.152-.124-.228-.185-.176-.14-.266-.208-.158-.116-.238-.174-.182-.13-.274-.193-.164-.108-.246-.161-.188-.12-.283-.177-.168-.1-.253-.148-.195-.109-.293-.162-.174-.091-.261-.134-.2-.1-.3-.147q-.131-.062-.265-.121c-.1-.046-.207-.087-.311-.13s-.179-.073-.269-.107c-.105-.04-.212-.078-.319-.115-.09-.032-.181-.063-.272-.093-.109-.035-.217-.067-.329-.1-.09-.027-.181-.053-.273-.078l-.106-.026a10.782,10.782,0,0,1,2.777,4.509,14.581,14.581,0,0,0,2.98-1.147Zm0,0" transform="translate(-264.281 -6.445)"/><path class="a" d="M0,88.167H5.209a22.54,22.54,0,0,1,.877-6.011,15.092,15.092,0,0,1-3.3-1.312A12.139,12.139,0,0,0,0,88.167Zm0,0" transform="translate(0 -76.471)"/><path class="a" d="M137.209,349.515v-5.6a22.08,22.08,0,0,0-4.514.531C133.72,347.311,135.35,349.251,137.209,349.515Zm0,0" transform="translate(-125.489 -325.254)"/><path class="a" d="M117.563,231.684h-5.642a21.728,21.728,0,0,0,.855,5.8,22.872,22.872,0,0,1,4.787-.571Zm0,0" transform="translate(-105.843 -219.119)"/><path class="a" d="M137.209.316c-1.859.264-3.489,2.2-4.514,5.07a22.051,22.051,0,0,0,4.514.531Zm0,0" transform="translate(-125.489 -0.316)"/><path class="a" d="M117.564,109.512a22.883,22.883,0,0,1-4.787-.571,21.726,21.726,0,0,0-.855,5.8h5.642Zm0,0" transform="translate(-105.843 -103.042)"/><path class="a" d="M67.943,6.789l-.106.026c-.092.025-.183.052-.274.078-.109.032-.217.064-.327.1-.092.03-.183.062-.274.093-.106.038-.213.075-.318.115s-.18.071-.27.108l-.309.13c-.09.039-.178.08-.267.122s-.2.1-.3.146-.174.09-.261.136-.194.106-.29.16-.172.1-.256.149-.188.116-.281.174-.167.107-.249.163-.182.126-.272.19-.161.116-.24.174-.174.136-.263.206-.155.123-.231.187-.169.146-.253.22-.149.13-.222.2-.163.157-.244.236-.141.137-.21.209l-.038.041A14.586,14.586,0,0,0,65.168,11.3a10.777,10.777,0,0,1,2.775-4.506Zm0,0" transform="translate(-58.814 -6.438)"/><path class="a" d="M62.474,358.956c.081.08.161.16.244.237s.146.13.22.2.168.15.255.222.152.124.228.185.174.14.266.208.158.116.237.174.182.13.275.193.164.108.246.161.188.119.283.177.168.1.253.148.195.109.293.162.174.091.261.134.2.1.3.147q.13.061.265.121c.1.046.207.087.311.13s.179.073.269.107c.105.041.212.078.319.115.09.032.181.063.272.093.109.035.217.068.329.1.09.026.181.053.272.078l.106.026a10.783,10.783,0,0,1-2.777-4.509,14.584,14.584,0,0,0-2.977,1.146l.038.04C62.333,358.819,62.4,358.887,62.474,358.956Zm0,0" transform="translate(-58.851 -338.161)"/><path class="a" d="M2.789,239.006a15.113,15.113,0,0,1,3.3-1.312,22.539,22.539,0,0,1-.877-6.011H0A12.141,12.141,0,0,0,2.789,239.006Zm0,0" transform="translate(0 -219.118)"/></svg>