<svg xmlns="http://www.w3.org/2000/svg" width="19.24" height="21.395" viewBox="0 0 19.24 21.395"><defs><style>.a{fill:#b0c1d1;stroke:#b0c1d1;stroke-width:0.3px;}</style></defs><g transform="translate(0.15 0.151)"><g transform="translate(0 6.463)"><path class="a" d="M44.236,156.879H27a.852.852,0,1,0,0,1.7H44.236a.852.852,0,1,0,0-1.7Z" transform="translate(-26.148 -156.879)"/></g><g transform="translate(0 12.927)"><path class="a" d="M44.236,313.756H27a.852.852,0,1,0,0,1.7H44.236a.852.852,0,1,0,0-1.7Z" transform="translate(-26.148 -313.756)"/></g><g transform="translate(4.309 0)"><path class="a" d="M133.832.006a.852.852,0,0,0-.941.753l-2.154,19.39a.852.852,0,0,0,.753.941.864.864,0,0,0,.1.005.852.852,0,0,0,.846-.758L134.585.947A.852.852,0,0,0,133.832.006Z" transform="translate(-130.732 -0.001)"/></g><g transform="translate(10.772 0)"><path class="a" d="M290.708.005a.852.852,0,0,0-.941.753l-2.154,19.39a.852.852,0,0,0,.753.941.863.863,0,0,0,.1.005.852.852,0,0,0,.846-.758L291.461.946A.852.852,0,0,0,290.708.005Z" transform="translate(-287.608 0)"/></g></g></svg>