<svg xmlns="http://www.w3.org/2000/svg" width="25.41" height="24.584" viewBox="0 0 25.41 24.584"><defs><style>.a{fill:#b0c1d1;}</style></defs><g transform="translate(0)"><circle class="a" cx="0.966" cy="0.966" r="0.966" transform="translate(0 5.8)"/><circle class="a" cx="0.966" cy="0.966" r="0.966" transform="translate(1.933 3.868)"/><circle class="a" cx="0.966" cy="0.966" r="0.966" transform="translate(3.866 1.934)"/><circle class="a" cx="0.966" cy="0.966" r="0.966" transform="translate(5.8)"/><circle class="a" cx="0.966" cy="0.966" r="0.966" transform="translate(2.486 7.734)"/><circle class="a" cx="0.966" cy="0.966" r="0.966" transform="translate(4.419 5.8)"/><circle class="a" cx="0.966" cy="0.966" r="0.966" transform="translate(6.353 3.868)"/><circle class="a" cx="0.966" cy="0.966" r="0.966" transform="translate(8.286 1.934)"/><circle class="a" cx="0.966" cy="0.966" r="0.966" transform="translate(10.22)"/><circle class="a" cx="0.966" cy="0.966" r="0.966" transform="translate(23.478 5.8)"/><circle class="a" cx="0.966" cy="0.966" r="0.966" transform="translate(21.545 3.866)"/><circle class="a" cx="0.966" cy="0.966" r="0.966" transform="translate(19.61 1.934)"/><circle class="a" cx="0.966" cy="0.966" r="0.966" transform="translate(17.679)"/><circle class="a" cx="0.966" cy="0.966" r="0.966" transform="translate(20.992 7.734)"/><circle class="a" cx="0.966" cy="0.966" r="0.966" transform="translate(19.059 5.801)"/><circle class="a" cx="0.966" cy="0.966" r="0.966" transform="translate(17.125 3.866)"/><circle class="a" cx="0.966" cy="0.966" r="0.966" transform="translate(15.191 1.934)"/><circle class="a" cx="0.966" cy="0.966" r="0.966" transform="translate(13.258)"/><path class="a" d="M14.211,4.874a2.093,2.093,0,0,0-3.536,0L3.163,13.419c-.973,1.3-.443,2.357,1.178,2.357h.737v5.892a2.955,2.955,0,0,0,2.946,2.946h8.839a2.955,2.955,0,0,0,2.946-2.946V15.776h.738c1.621,0,2.149-1.061,1.177-2.357Zm-2.46,16.735H7.911a.585.585,0,0,1-.435-1.038c.889-.949,1.731-1.564,2.69-2.435.913-.712.9-2.136-.435-2.136a1.382,1.382,0,0,0-1.128.663c-.4.623-1.436.206-1.039-.682a2.318,2.318,0,0,1,2.167-1.217c2.344,0,3.275,2.414,1.4,4.243a12.45,12.45,0,0,1-1.921,1.386c.436,0,.96-.06,1.4-.06H11.75C12.512,20.333,12.611,21.609,11.751,21.609Zm3.169.041a2.193,2.193,0,0,1-1.99-1.04c-.377-.682.6-1.345,1.039-.682a1.238,1.238,0,0,0,.95.506c.71,0,1.4-.258,1.4-1.12,0-.7-.684-.95-1.3-.95a6.963,6.963,0,0,0-1.209.178.632.632,0,0,1-.87-.7l.078-2.346c0-.515.348-.693.793-.693h2.87a.624.624,0,0,1,0,1.247H14.247l-.059,1.2c1.553-.414,3.434.248,3.434,2.069C17.62,20.878,16.4,21.65,14.92,21.65Z" transform="translate(0.262 -0.031)"/></g></svg>