<svg xmlns="http://www.w3.org/2000/svg" width="61.472" height="61.471" viewBox="0 0 61.472 61.471"><defs><style>.a{fill:#9298a2;}</style></defs><path class="a" d="M60.347,20.335,41.137,1.125A3.843,3.843,0,0,0,34.748,2.7a17.842,17.842,0,0,1-4.6,7.5c-2.974,2.972-6.846,5.223-10.944,7.6-4.349,2.52-8.842,5.133-12.525,8.813A25.389,25.389,0,0,0,.171,37.283a3.847,3.847,0,0,0,.953,3.853l19.21,19.21a3.841,3.841,0,0,0,6.389-1.583,17.851,17.851,0,0,1,4.6-7.5c2.972-2.972,6.842-5.219,10.944-7.6,4.345-2.524,8.84-5.137,12.521-8.817A25.389,25.389,0,0,0,61.3,24.186,3.85,3.85,0,0,0,60.347,20.335Zm-37.3,37.293C16.689,51.266,10.2,44.779,3.842,38.419,9.3,20.744,32.964,21.516,38.419,3.841L57.633,23.051C52.171,40.722,28.509,39.953,23.052,57.628Z" transform="translate(0 0)"/><path class="a" d="M26.862,18.194a5.136,5.136,0,0,0-1.89-1.058,5.5,5.5,0,0,0-1.9-.2,6.8,6.8,0,0,0-1.921.44c-.645.252-1.295.524-1.948.841-1.032-1.185-2.063-2.357-3.095-3.444a2.172,2.172,0,0,1,1.35-.649,4.339,4.339,0,0,1,1.252.127c.405.1.776.188,1.118.255a1.033,1.033,0,0,0,.909-.229,1.275,1.275,0,0,0,.453-.926,1.533,1.533,0,0,0-.44-1.106,2.483,2.483,0,0,0-1.479-.851,4.565,4.565,0,0,0-1.786.04,6.032,6.032,0,0,0-1.733.69,6.759,6.759,0,0,0-1.314.976c-.125-.119-.25-.236-.375-.353a.723.723,0,0,0-.519-.192.671.671,0,0,0-.524.255.736.736,0,0,0,.067,1.032c.125.106.25.209.375.319A8.84,8.84,0,0,0,12.25,16.1a6.484,6.484,0,0,0-.586,2.048,4.067,4.067,0,0,0,.2,1.858,3.53,3.53,0,0,0,1.141,1.523,4.416,4.416,0,0,0,3.2,1A9.626,9.626,0,0,0,20.2,21.318c1.133,1.31,2.271,2.611,3.406,3.819a3.011,3.011,0,0,1-1.272.713,1.987,1.987,0,0,1-1-.019,3.183,3.183,0,0,1-.834-.4,5.853,5.853,0,0,0-.759-.449,1.771,1.771,0,0,0-.765-.2,1.314,1.314,0,0,0-.847.386,1.237,1.237,0,0,0-.473.953,1.672,1.672,0,0,0,.488,1.087,3.931,3.931,0,0,0,1.264.92,4.737,4.737,0,0,0,1.731.44,4.8,4.8,0,0,0,2.019-.315,5.853,5.853,0,0,0,2.113-1.425c.334.327.672.638,1.009.937a.735.735,0,0,0,1.043-.1A.742.742,0,0,0,27.5,27.1a.655.655,0,0,0-.24-.469q-.507-.406-1.012-.855a10.465,10.465,0,0,0,1.377-2.184,6.691,6.691,0,0,0,.611-2.113,3.774,3.774,0,0,0-.229-1.808A3.678,3.678,0,0,0,26.862,18.194Zm-10.74,1.3a1.866,1.866,0,0,1-1.433-.559,1.408,1.408,0,0,1-.375-.619,1.929,1.929,0,0,1-.075-.8,2.562,2.562,0,0,1,.263-.893,3.655,3.655,0,0,1,.622-.9c.974.968,1.946,2.03,2.92,3.129A4.561,4.561,0,0,1,16.122,19.5Zm9.061,3.846a4.06,4.06,0,0,1-.6.851c-1.078-1.087-2.153-2.282-3.227-3.508.275-.123.563-.252.874-.382a4.281,4.281,0,0,1,.934-.271,2.468,2.468,0,0,1,.949.04,1.95,1.95,0,0,1,.882.515,1.771,1.771,0,0,1,.511.855,2.331,2.331,0,0,1,.027.937A3.1,3.1,0,0,1,25.184,23.342Z" transform="translate(10.716 10.427)"/><path class="a" d="M18.424,22.284h0a34.481,34.481,0,0,0-3.458,2.983,28.069,28.069,0,0,0-2.807,3.264l-1.314,1.794,0,0a.964.964,0,0,0,1.491,1.2.9.9,0,0,0,.142-.192l1.227-1.681a26.068,26.068,0,0,1,2.614-3.035,30.468,30.468,0,0,1,3.293-2.833l0,0a.974.974,0,0,0,.1-.079.96.96,0,0,0-1.283-1.425Z" transform="translate(9.847 20.322)"/><path class="a" d="M20.167,10.258a31.879,31.879,0,0,1-3.223,2.772.915.915,0,0,0-.225.165.97.97,0,0,0,1.343,1.4l.008,0a34.964,34.964,0,0,0,3.456-2.983,28.223,28.223,0,0,0,2.807-3.26l1.314-1.8,0,0a.967.967,0,0,0-1.418-1.314,1.046,1.046,0,0,0-.169.236L22.78,7.221A25.96,25.96,0,0,1,20.167,10.258Z" transform="translate(15.137 4.561)"/></svg>