<svg id="cash" xmlns="http://www.w3.org/2000/svg" width="55.496" height="55.496" viewBox="0 0 55.496 55.496">
  <circle id="Ellipse_49" data-name="Ellipse 49" cx="27.748" cy="27.748" r="27.748" fill="#f3f2f2"/>
  <g id="cash-2" data-name="cash" transform="translate(2.673 10)">
    <path id="Path_771" data-name="Path 771" d="M269.053,2.379A76.124,76.124,0,0,0,264.5,20.341a70.275,70.275,0,0,1-8.043-.983,76.2,76.2,0,0,0-.168-18.54C261.8-.564,264.029-.292,269.053,2.379Z" transform="translate(-230.87 0)" fill="#3ea69b"/>
    <path id="Path_772" data-name="Path 772" d="M275.077,30.54c-1.923-.206-2.858-.32-4.775-.584a1.231,1.231,0,0,0-.932-1.427,99.794,99.794,0,0,0,.186-14.657c.871-.248,1.561-.925,1.52-1.618a10.134,10.134,0,0,1,7.441.91A1.872,1.872,0,0,0,279.61,15.1a99.717,99.717,0,0,0-3.291,14.278A1.225,1.225,0,0,0,275.077,30.54Z" transform="translate(-243.001 -11.067)" fill="#44c4a1"/>
    <g id="Group_195" data-name="Group 195" transform="translate(27.657 1.895)">
      <path id="Path_773" data-name="Path 773" d="M290.541,101.94a3,3,0,0,1,2.738,3.3,3.2,3.2,0,0,1-6.179-.755A2.989,2.989,0,0,1,290.541,101.94Z" transform="translate(-287.098 -96.404)" fill="#3ea69b"/>
      <path id="Path_774" data-name="Path 774" d="M333.458,26.083a.681.681,0,0,1,.643.718.731.731,0,1,1-.643-.718Z" transform="translate(-329.35 -26.076)" fill="#3ea69b"/>
      <ellipse id="Ellipse_51" data-name="Ellipse 51" cx="0.496" cy="0.612" rx="0.496" ry="0.612" transform="translate(2.625 16.501) rotate(-173.142)" fill="#3ea69b"/>
    </g>
    <path id="Path_775" data-name="Path 775" d="M300.371,117.206c-.172-.042-.258-.062-.431-.1a3.1,3.1,0,0,1-.888,1.471c-.172-.226-.258-.339-.434-.563a2.463,2.463,0,0,0,.677-1.043c-.461-.089-.692-.127-1.156-.189a3.017,3.017,0,0,1-.552,1.042.925.925,0,0,1-.8.272,1.032,1.032,0,0,1-.793-.452,1.693,1.693,0,0,1-.282-1.04l-.3,0c.01-.166.015-.248.024-.414h.312a2.9,2.9,0,0,1,.556-1.353c.222.173.332.262.547.445a2.235,2.235,0,0,0-.437.924c.459.019.688.035,1.145.081l0-.02a2.67,2.67,0,0,1,.578-1.066.958.958,0,0,1,.882-.23,1.131,1.131,0,0,1,.819.585,1.808,1.808,0,0,1,.18,1.142c.172.04.257.061.428.1C300.415,116.961,300.4,117.042,300.371,117.206Zm-3.893-.112a.405.405,0,0,0,.318.19.412.412,0,0,0,.328-.107,1.462,1.462,0,0,0,.277-.482c-.416-.04-.625-.055-1.042-.074A.824.824,0,0,0,296.478,117.093Zm2.808-1.067a.446.446,0,0,0-.326-.249.415.415,0,0,0-.36.088,1.433,1.433,0,0,0-.305.506c.435.061.652.1,1.083.184A.993.993,0,0,0,299.286,116.027Z" transform="translate(-267.148 -106.489)" fill="#44c4a1"/>
    <path id="Path_776" data-name="Path 776" d="M270.625,25.488a71.759,71.759,0,0,0-9.472,15.5,73.206,73.206,0,0,1-7.263-3.838A75.764,75.764,0,0,0,259.1,19.4C264.67,20.064,266.683,21.128,270.625,25.488Z" transform="translate(-228.646 -17.988)" fill="#3ea69b"/>
    <path id="Path_777" data-name="Path 777" d="M276.326,56.312c-1.745-.889-2.59-1.336-4.311-2.278a1.334,1.334,0,0,0-.462-1.7,98.739,98.739,0,0,0,4.417-13.923,1.7,1.7,0,0,0,1.895-1,10.536,10.536,0,0,1,6.72,3.55,2.018,2.018,0,0,0,.465,2.243,94.381,94.381,0,0,0-7.22,12.442A1.125,1.125,0,0,0,276.326,56.312Z" transform="translate(-245.026 -34.697)" fill="#44c4a1"/>
    <g id="Group_196" data-name="Group 196" transform="translate(29.223 4.635)">
      <path id="Path_778" data-name="Path 778" d="M320.289,129.519a3.268,3.268,0,0,1,1.614,4.138,2.712,2.712,0,0,1-3.775.757,3.214,3.214,0,0,1-1.805-3.706A2.76,2.76,0,0,1,320.289,129.519Z" transform="translate(-315.642 -124.385)" fill="#3ea69b"/>
      <path id="Path_779" data-name="Path 779" d="M391.195,63.881a.742.742,0,0,1,.4.917.622.622,0,0,1-.885.191.737.737,0,0,1-.414-.877A.627.627,0,0,1,391.195,63.881Z" transform="translate(-384.324 -63.786)" fill="#3ea69b"/>
      <path id="Path_780" data-name="Path 780" d="M309.4,255.281a.609.609,0,0,1,.2.789.517.517,0,0,1-.689.318.613.613,0,0,1-.2-.789A.515.515,0,0,1,309.4,255.281Z" transform="translate(-308.653 -241.321)" fill="#3ea69b"/>
    </g>
    <path id="Path_781" data-name="Path 781" d="M329.744,140.509c-.149-.1-.224-.153-.375-.252a2.812,2.812,0,0,1-1.259,1.084c-.1-.278-.145-.416-.245-.694a2.225,2.225,0,0,0,.937-.752c-.407-.251-.613-.371-1.03-.6a2.742,2.742,0,0,1-.819.8.879.879,0,0,1-.829-.029,1.134,1.134,0,0,1-.614-.717,1.775,1.775,0,0,1,.036-1.094l-.283-.112c.057-.154.086-.232.142-.386l.293.113a2.67,2.67,0,0,1,.913-1.091c.158.245.235.37.385.622a2.044,2.044,0,0,0-.677.725c.425.183.635.281,1.051.49l.008-.018a2.426,2.426,0,0,1,.851-.809.923.923,0,0,1,.895.1,1.25,1.25,0,0,1,.6.853,1.858,1.858,0,0,1-.162,1.155c.149.1.224.151.372.254Zm-3.62-1.51a.445.445,0,0,0,.243.3.392.392,0,0,0,.338.016,1.325,1.325,0,0,0,.4-.36c-.379-.188-.57-.277-.957-.446A.863.863,0,0,0,326.123,139Zm2.944-.006a.494.494,0,0,0-.234-.355.4.4,0,0,0-.363-.046,1.3,1.3,0,0,0-.433.373c.39.215.583.328.963.566A1.022,1.022,0,0,0,329.067,138.993Z" transform="translate(-294.833 -126.838)" fill="#44c4a1"/>
    <path id="Path_782" data-name="Path 782" d="M99.488,165.9h0a2.443,2.443,0,0,0-2.416-2.47h-.164a27.215,27.215,0,0,0-5.414,0h-.321v.037a12.639,12.639,0,0,0-1.8.328l-.128-3.724-1.694.358a4.859,4.859,0,0,0-2.513,1.45l-3.7,4.013a4.859,4.859,0,0,1-3.573,1.567H77.3l-1.827,13.263,4.627.041c6.576,2.6,14.491,1.684,14.491,1.684h.68a2.443,2.443,0,0,0,2.416-2.47h0a2.472,2.472,0,0,0-1.4-2.24h.167a2.443,2.443,0,0,0,2.416-2.47h0a2.472,2.472,0,0,0-1.37-2.224,2.454,2.454,0,0,0,1.988-2.429h0a2.465,2.465,0,0,0-1.695-2.358A2.465,2.465,0,0,0,99.488,165.9Z" transform="translate(-63.197 -148.442)" fill="#fcd462"/>
    <rect id="Rectangle_467" data-name="Rectangle 467" width="7.753" height="18.818" transform="translate(7.327 16.899)" fill="#27a2db"/>
    <circle id="Ellipse_52" data-name="Ellipse 52" cx="1.36" cy="1.36" r="1.36" transform="translate(9.844 31.388)" fill="#1c75a1"/>
  </g>
</svg>
