<svg xmlns="http://www.w3.org/2000/svg" width="55.496" height="55.496" viewBox="0 0 55.496 55.496">
  <g id="mastercard" transform="translate(0.485)">
    <circle id="Ellipse_50" data-name="Ellipse 50" cx="27.748" cy="27.748" r="27.748" transform="translate(-0.485 0)" fill="#f3f2f2"/>
    <g id="western-union_1_" data-name="western-union (1)" transform="translate(4.515 -134.2)">
      <g id="Group_189" data-name="Group 189" transform="translate(5.548 153.2)">
        <path id="Path_748" data-name="Path 748" d="M70.522,170.6H62.874L59.2,153.2h6.073l1.575,10.722L68.5,153.2h6.973l1.65,11.022L78.77,153.2h6l-3.674,17.4H73.6l-1.575-11.247" transform="translate(-59.2 -153.2)" fill="#ffdd12"/>
        <path id="Path_749" data-name="Path 749" d="M70.522,170.6H62.874L59.2,153.2h6.073l1.575,10.722L68.5,153.2h6.973l1.65,11.022L78.77,153.2h6l-3.674,17.4H73.6l-1.575-11.247" transform="translate(-59.2 -153.2)" fill="#ffdd12"/>
      </g>
      <path id="Path_750" data-name="Path 750" d="M127.787,169.971a6.691,6.691,0,0,0,2.624,1.35h.6l1.575-11.247,1.575,11.247h7.5L145.332,154h-6l-1.65,10.947L136.11,154h-6.973l-1.575,10.722L125.988,154h0v10.572A6.077,6.077,0,0,0,127.787,169.971Z" transform="translate(-114.141 -0.725)" fill="#ffc715"/>
      <path id="Path_751" data-name="Path 751" d="M4.649,170.52H3.6L0,153.2H1.05" transform="translate(0 0)" fill="#fff315"/>
      <path id="Path_752" data-name="Path 752" d="M34.249,170.52h-.975L29.6,153.2h1.05" transform="translate(-26.826 0)" fill="#ffdd12"/>
      <path id="Path_753" data-name="Path 753" d="M309.4,153.2v10.872a2.694,2.694,0,0,1-.45,1.65,1.424,1.424,0,0,1-1.125.6,1.457,1.457,0,0,1-1.2-.6,2.812,2.812,0,0,1-.375-1.725V153.2h-1.275L301.6,169.246a5.408,5.408,0,0,0,2.249,1.2,12.339,12.339,0,0,0,4.049.525c2.774,0,4.874-.6,6.223-1.725,1.35-1.2,2.024-3,2.024-5.473V153.2" transform="translate(-273.333 0)"/>
      <path id="Path_754" data-name="Path 754" d="M280.8,153.2v10.572a11.245,11.245,0,0,0,.375,3.149A4.827,4.827,0,0,0,282.3,168.8l3.3-15.6" transform="translate(-254.482 0)" fill="#ffa515"/>
      <path id="Path_755" data-name="Path 755" d="M470.4,160.425h.3l.075.15.15.075.15-.075.075-.075-.075-.075-.15-.075a.39.39,0,0,1-.3-.15l-.075-.225.075-.15.15-.15c.075,0,.15-.075.3-.075s.225,0,.3.075a.39.39,0,0,1,.15.3h-.3l-.075-.15h-.225v.15l.15.075c.15,0,.225.075.3.075l.15.15.075.15-.3.15-.15.15-.3.075a.441.441,0,0,1-.375-.15.276.276,0,0,1-.075-.225" transform="translate(-426.312 -5.8)"/>
      <path id="Path_756" data-name="Path 756" d="M482.4,159.6h.45l.225.75.15-.75h.45v1.2h-.3v-.9l-.225.9h-.225l-.225-.9v.9h-.3" transform="translate(-437.187 -5.8)"/>
      <path id="Path_757" data-name="Path 757" d="M301.6,169.246a5.408,5.408,0,0,0,2.249,1.2,12.338,12.338,0,0,0,4.049.525h.3l3.674-17.77H309.4v10.872a2.694,2.694,0,0,1-.45,1.65,1.424,1.424,0,0,1-1.125.6,1.457,1.457,0,0,1-1.2-.6,2.812,2.812,0,0,1-.375-1.725V153.2h-1.275Z" transform="translate(-273.333)" fill="#44423e"/>
    </g>
  </g>
</svg>
