<svg xmlns="http://www.w3.org/2000/svg" width="55.496" height="55.496" viewBox="0 0 55.496 55.496">
  <g id="mastercard" transform="translate(0)">
    <circle id="Ellipse_50" data-name="Ellipse 50" cx="27.748" cy="27.748" r="27.748" transform="translate(0 0)" fill="#f3f2f2"/>
    <g id="mastercard_1_" data-name="mastercard (1)" transform="translate(6.151 15)">
      <path id="Path_734" data-name="Path 734" d="M64.189,121.955a13.011,13.011,0,1,0,8.819,22.633h0a13.066,13.066,0,0,0,1.319-1.394h-2.66a12.6,12.6,0,0,1-.968-1.341h4.587a13.013,13.013,0,0,0,.757-1.392h-6.1a12.664,12.664,0,0,1-.543-1.367h7.186a12.984,12.984,0,0,0,.668-4.127,13.127,13.127,0,0,0-.3-2.787H69.019a13.257,13.257,0,0,1,.37-1.366h7.19a13.043,13.043,0,0,0-.56-1.393H69.943a12.552,12.552,0,0,1,.745-1.367h4.584a12.924,12.924,0,0,0-1.007-1.392H71.708a11.9,11.9,0,0,1,1.3-1.314,12.913,12.913,0,0,0-8.737-3.392Z" transform="translate(-51.288 -121.955)" fill="#931b1d"/>
      <path id="Path_735" data-name="Path 735" d="M223.345,134.971a12.983,12.983,0,1,1-25.967.005v-.005a12.984,12.984,0,1,1,25.967-.007A.06.06,0,0,0,223.345,134.971Z" transform="translate(-179.962 -121.955)" fill="#f16622"/>
      <path id="Path_736" data-name="Path 736" d="M223.345,136.182a12.983,12.983,0,1,1-25.967.007v-.007a12.984,12.984,0,1,1,25.967-.007A.066.066,0,0,0,223.345,136.182Z" transform="translate(-179.962 -123.023)" fill="#f7981d"/>
      <path id="Path_737" data-name="Path 737" d="M64.189,123.193a13.012,13.012,0,1,0,8.819,22.633h0a12.862,12.862,0,0,0,1.319-1.394h-2.66a12.492,12.492,0,0,1-.968-1.339h4.587a13.121,13.121,0,0,0,.757-1.394h-6.1a12.77,12.77,0,0,1-.543-1.366h7.186a13.1,13.1,0,0,0,.369-6.914H69.019a13.252,13.252,0,0,1,.37-1.366h7.19a13.06,13.06,0,0,0-.56-1.394H69.943a12.67,12.67,0,0,1,.745-1.366h4.584a13.167,13.167,0,0,0-1.007-1.393H71.708a12.05,12.05,0,0,1,1.3-1.314,12.914,12.914,0,0,0-8.737-3.392Z" transform="translate(-51.288 -123.045)" fill="#cb2026"/>
      <g id="Group_188" data-name="Group 188" transform="translate(1.232 9.799)">
        <path id="Path_738" data-name="Path 738" d="M183.565,215.07l.174-1.177c-.095,0-.234.04-.356.04-.481,0-.534-.256-.5-.446l.389-2.4H184l.177-1.3h-.689l.141-.809h-1.383c-.03.03-.816,4.556-.816,5.106a1.027,1.027,0,0,0,1.1,1.174A3.632,3.632,0,0,0,183.565,215.07Z" transform="translate(-167.145 -208.397)" fill="#fff"/>
        <path id="Path_739" data-name="Path 739" d="M203.035,217.672a2.172,2.172,0,0,0,2.387,2.424,3.5,3.5,0,0,0,1.46-.228l.244-1.336a4.275,4.275,0,0,1-1.468.343c-1.484,0-1.224-1.11-1.224-1.11h2.81a10.044,10.044,0,0,0,.181-1.264,1.856,1.856,0,0,0-1.971-2.025C204.063,214.475,203.035,215.975,203.035,217.672Zm2.425-1.957c.78,0,.636.879.636.95h-1.535C204.56,216.574,204.705,215.715,205.46,215.715Z" transform="translate(-186.176 -213.244)" fill="#fff"/>
        <path id="Path_740" data-name="Path 740" d="M269.479,210.822l.248-1.512a3.309,3.309,0,0,1-1.144.343,1.371,1.371,0,0,1-1.374-1.557c0-1.636.844-2.536,1.783-2.536a2.457,2.457,0,0,1,1.27.4l.225-1.467a4.943,4.943,0,0,0-1.556-.341c-1.6,0-3.149,1.386-3.149,3.994,0,1.726.839,2.869,2.489,2.869A6.354,6.354,0,0,0,269.479,210.822Z" transform="translate(-241.442 -204.149)" fill="#fff"/>
        <path id="Path_741" data-name="Path 741" d="M116.607,214.654a4.774,4.774,0,0,0-1.675.3l-.2,1.194a4.37,4.37,0,0,1,1.506-.244c.515,0,.891.058.891.477a.891.891,0,0,1-.046.348s-.405-.034-.594-.034c-1.2,0-2.451.511-2.451,2.054a1.313,1.313,0,0,0,1.334,1.493,1.8,1.8,0,0,0,1.418-.637l-.046.53h1.217l.543-3.816A1.635,1.635,0,0,0,116.607,214.654Zm.3,3.106c.026.233-.146,1.326-.979,1.326a.5.5,0,0,1-.541-.524c0-.379.206-.834,1.219-.834A.9.9,0,0,1,116.9,217.76Z" transform="translate(-107.789 -213.402)" fill="#fff"/>
        <path id="Path_742" data-name="Path 742" d="M150.9,220.284c.311,0,2.091.08,2.091-1.761,0-1.721-1.647-1.382-1.647-2.073,0-.343.269-.453.759-.453.195,0,.945.063.945.063l.175-1.224a6.466,6.466,0,0,0-1.275-.108c-1.024,0-2.061.408-2.061,1.808,0,1.588,1.731,1.427,1.731,2.1,0,.446-.484.483-.857.483a4.494,4.494,0,0,1-1.227-.211l-.184,1.21A4.323,4.323,0,0,0,150.9,220.284Z" transform="translate(-138.893 -213.467)" fill="#fff"/>
        <path id="Path_743" data-name="Path 743" d="M363.621,205.423l-.3,1.854a1.827,1.827,0,0,0-1.335-.719c-1.267,0-2.323,1.53-2.323,3.289,0,1.135.562,2.247,1.714,2.247a1.724,1.724,0,0,0,1.286-.579l-.06.494h1.344l1.057-6.588Zm-.642,3.616c0,.731-.362,1.708-1.111,1.708-.5,0-.73-.418-.73-1.075,0-1.073.481-1.784,1.087-1.784C362.724,207.889,362.979,208.232,362.979,209.039Z" transform="translate(-324.134 -205.268)" fill="#fff"/>
        <path id="Path_744" data-name="Path 744" d="M62.951,212l.843-4.974L63.916,212h.953l1.777-4.974L65.859,212h1.415l1.091-6.6H66.175l-1.363,4.046-.071-4.046H62.725L61.619,212Z" transform="translate(-61.619 -205.258)" fill="#fff"/>
        <path id="Path_745" data-name="Path 745" d="M240.967,220.621c.4-2.292.477-4.155,1.438-3.815a5.37,5.37,0,0,1,.513-1.606,1.438,1.438,0,0,0-.267-.018c-.618,0-1.077.848-1.077.848l.122-.778h-1.287l-.861,5.37Z" transform="translate(-218.335 -213.867)" fill="#fff"/>
        <path id="Path_746" data-name="Path 746" d="M304.57,214.654a4.77,4.77,0,0,0-1.674.3l-.2,1.194a4.359,4.359,0,0,1,1.506-.244c.514,0,.891.058.891.477a.883.883,0,0,1-.046.348s-.406-.034-.6-.034c-1.2,0-2.45.511-2.45,2.054a1.314,1.314,0,0,0,1.334,1.493,1.792,1.792,0,0,0,1.418-.637l-.045.53h1.218l.543-3.816A1.635,1.635,0,0,0,304.57,214.654Zm.3,3.106c.026.233-.145,1.326-.979,1.326a.5.5,0,0,1-.54-.524c0-.379.206-.834,1.217-.834A.906.906,0,0,1,304.867,217.76Z" transform="translate(-273.343 -213.402)" fill="#fff"/>
        <path id="Path_747" data-name="Path 747" d="M338.313,220.621c.4-2.292.477-4.155,1.438-3.815a5.333,5.333,0,0,1,.514-1.606,1.461,1.461,0,0,0-.267-.018c-.62,0-1.077.848-1.077.848l.123-.778h-1.288l-.862,5.37h1.419Z" transform="translate(-304.076 -213.867)" fill="#fff"/>
      </g>
    </g>
  </g>
</svg>
