<svg id="paypal" xmlns="http://www.w3.org/2000/svg" width="55.496" height="55.496" viewBox="0 0 55.496 55.496">
  <circle id="Ellipse_49" data-name="Ellipse 49" cx="27.748" cy="27.748" r="27.748" transform="translate(0)" fill="#f3f2f2"/>
  <g id="paypal_2_" data-name="paypal (2)" transform="translate(11 0.324)">
    <path id="Path_760" data-name="Path 760" d="M174.41,75.4a2.777,2.777,0,0,0-2.842-.607.782.782,0,0,0-.525.626l-.219,1.5a4.64,4.64,0,0,1-4.573,3.969h-3.128a.782.782,0,0,0-.759.593l-2.346,9.384a.782.782,0,0,0,.758.971h3.91a.782.782,0,0,0,.759-.593l1.415-5.663h3.05a5.072,5.072,0,0,0,4.942-3.861l.577-2.313A4.113,4.113,0,0,0,174.41,75.4Z" transform="translate(-148.266 -59.273)" fill="#03a9f4"/>
    <g id="Group_192" data-name="Group 192" transform="translate(0 34.135)">
      <path id="Path_761" data-name="Path 761" d="M.782,338.5a.782.782,0,0,1-.759-.971l.782-3.112v-.033l.782-3.111a.782.782,0,0,1,.759-.593H4.335a1.955,1.955,0,0,1,1.9,2.429l-.2.782a1.955,1.955,0,0,1-1.9,1.481H2.175L1.542,337.9A.782.782,0,0,1,.782,338.5ZM2.566,333.8H4.139a.391.391,0,0,0,.378-.3l.2-.782a.389.389,0,0,0-.28-.474.385.385,0,0,0-.1-.012H2.957Z" transform="translate(0 -330.677)" fill="#283593"/>
      <path id="Path_762" data-name="Path 762" d="M83.251,378.013H82.137a2.168,2.168,0,0,1-2.1-2.693h0l.1-.416a2.086,2.086,0,0,1,2.033-1.584h1.113a2.168,2.168,0,0,1,2.1,2.695l-.1.416A2.086,2.086,0,0,1,83.251,378.013Zm-1.7-2.313a.6.6,0,0,0,.44.731.61.61,0,0,0,.144.018h1.113a.524.524,0,0,0,.51-.4l.1-.416a.6.6,0,0,0-.44-.731.61.61,0,0,0-.144-.018H82.165a.524.524,0,0,0-.51.4Z" transform="translate(-74.107 -370.194)" fill="#283593"/>
      <path id="Path_763" data-name="Path 763" d="M128.782,378.024a.782.782,0,0,1-.759-.971l.782-3.128a.783.783,0,0,1,1.519.379l-.782,3.128A.782.782,0,0,1,128.782,378.024Z" transform="translate(-118.616 -370.205)" fill="#283593"/>
    </g>
    <g id="Group_193" data-name="Group 193" transform="translate(18.767 34.135)">
      <path id="Path_764" data-name="Path 764" d="M256.782,338.5a.782.782,0,0,1-.759-.971l.782-3.112v-.033l.782-3.111a.782.782,0,0,1,.759-.593h1.989a1.955,1.955,0,0,1,1.9,2.429l-.2.782a1.955,1.955,0,0,1-1.9,1.481h-1.964l-.633,2.535A.782.782,0,0,1,256.782,338.5Zm1.784-4.692h1.575a.391.391,0,0,0,.378-.3l.2-.782a.389.389,0,0,0-.379-.486h-1.379Z" transform="translate(-256 -330.676)" fill="#03a9f4"/>
      <path id="Path_765" data-name="Path 765" d="M339.251,378.013h-1.114a2.168,2.168,0,0,1-2.1-2.693h0l.1-.416a2.086,2.086,0,0,1,2.033-1.584h1.113a2.168,2.168,0,0,1,2.1,2.693l-.1.416A2.086,2.086,0,0,1,339.251,378.013Zm-1.7-2.313a.6.6,0,0,0,.585.749h1.114a.524.524,0,0,0,.51-.4l.1-.416a.6.6,0,0,0-.585-.749h-1.114a.524.524,0,0,0-.51.4Z" transform="translate(-330.107 -370.194)" fill="#03a9f4"/>
      <path id="Path_766" data-name="Path 766" d="M384.782,378.024a.782.782,0,0,1-.759-.971l.782-3.128a.783.783,0,1,1,1.519.379h0l-.782,3.128A.782.782,0,0,1,384.782,378.024Z" transform="translate(-374.616 -370.204)" fill="#03a9f4"/>
    </g>
    <g id="Group_194" data-name="Group 194" transform="translate(12.511 37.262)">
      <path id="Path_767" data-name="Path 767" d="M173.007,377.24a.782.782,0,0,1-.651-.349l-1.564-2.346a.782.782,0,1,1,1.3-.868l1.564,2.346a.782.782,0,0,1-.651,1.217Z" transform="translate(-170.661 -373.329)" fill="#283593"/>
      <path id="Path_768" data-name="Path 768" d="M171.449,379.6a.782.782,0,0,1-.6-1.282l3.91-4.692a.782.782,0,1,1,1.2,1h0l-3.91,4.692A.782.782,0,0,1,171.449,379.6Z" transform="translate(-170.667 -373.347)" fill="#283593"/>
    </g>
    <path id="Path_769" data-name="Path 769" d="M427.448,338.486a.782.782,0,0,1-.759-.971l1.564-6.256a.783.783,0,0,1,1.519.378h0l-1.564,6.256A.782.782,0,0,1,427.448,338.486Z" transform="translate(-395.387 -296.531)" fill="#03a9f4"/>
    <path id="Path_770" data-name="Path 770" d="M122.4,12.029a3.952,3.952,0,0,0-2.981-1.353h-8.852a.782.782,0,0,0-.769.643l-3.128,17.2a.782.782,0,0,0,.769.921h4.692a.782.782,0,0,0,.759-.593l1.417-5.663h2.516a6.212,6.212,0,0,0,6.123-5.317l.391-2.673h0A3.983,3.983,0,0,0,122.4,12.029Z" transform="translate(-98.842 0)" fill="#283593"/>
  </g>
</svg>
