<svg xmlns="http://www.w3.org/2000/svg" width="105.907" height="28.67" viewBox="0 0 105.907 28.67"><defs><style>.a{fill:#9298a2;}</style></defs><g transform="translate(0 1.782)"><path class="a" d="M18.982,22.118a4.293,4.293,0,0,0-1.576-1.7A7.381,7.381,0,0,0,14.9,19.5a20.485,20.485,0,0,0-3.406-.269l-6.023,0a1.509,1.509,0,0,0-1.387,1.1L.031,37.986a.853.853,0,0,0,.872,1.1H3.788a1.477,1.477,0,0,0,1.385-1.1l.99-4.286a1.478,1.478,0,0,1,1.382-1.095H8.37c3.528,0,6.259-.725,8.221-2.168a6.752,6.752,0,0,0,2.946-5.721A5.366,5.366,0,0,0,18.982,22.118Zm-6.221,5.767a6.066,6.066,0,0,1-3.647.958H8.408a.859.859,0,0,1-.876-1.1L8.4,23.994A1.46,1.46,0,0,1,9.773,22.9l.945-.006a4.616,4.616,0,0,1,2.509.561,1.907,1.907,0,0,1,.832,1.719A3.123,3.123,0,0,1,12.761,27.885Z" transform="translate(0 -19.229)"/></g><g transform="translate(99.47)"><path class="a" d="M49.089,21.545l-.181.055-.242.034-.3-.046-.151-.147-.069-.231,0-.347V19.579h.964v-.4h-.964v-.8h-.477v.8h-.324v.4h.324v1.494l.223.74.656.235.275-.023.292-.057v-.422Z" transform="translate(-47.345 -18.381)"/></g><g transform="translate(101.804 0.721)"><path class="a" d="M52.339,19.008l-.689-.284-.508.1-.517.349-.3-.334-.487-.116-.469.1-.443.286V18.8h-.469v2.8h.466V19.514l.393-.244.391-.1.319.057.158.162.069.269.023.347v1.6h.469V19.817l-.008-.149-.008-.137.4-.254.395-.1.309.057L52,19.4l.059.271.032.342v1.6h.471V19.791Z" transform="translate(-48.456 -18.724)"/></g><g transform="translate(17.935 6.273)"><path class="a" d="M23.494,22.287a10.948,10.948,0,0,0-5.156-.92,22.786,22.786,0,0,0-3.49.271c-.863.132-.948.158-1.479.273A1.692,1.692,0,0,0,12.1,23.245L11.747,24.7c-.2.927.334.891.557.813A14.991,14.991,0,0,1,14.029,25a12.366,12.366,0,0,1,2.7-.361,7.121,7.121,0,0,1,2.624.37,1.325,1.325,0,0,1,.87,1.311l-.05.408-.416.256c-1.637.1-2.819.254-4.254.462a13.2,13.2,0,0,0-3.658,1.006,5.686,5.686,0,0,0-2.483,1.958,5.336,5.336,0,0,0-.826,3.017,3.564,3.564,0,0,0,1.174,2.74,4.41,4.41,0,0,0,3.04,1.038,8.293,8.293,0,0,0,1.811-.168l1.4-.481,1.183-.656,1.088-.719.015.021-.109.462-.006.019v0a.858.858,0,0,0,.771,1.08l.011.013H21.59l.038-.017a1.492,1.492,0,0,0,1.242-1.08l2.1-9.1.109-.742.05-.7A3.044,3.044,0,0,0,23.494,22.287ZM18.842,32.523l-.45.592-1.135.586a4.04,4.04,0,0,1-1.508.326,3.461,3.461,0,0,1-1.643-.313l-.557-1.082a2.163,2.163,0,0,1,.422-1.408l1.223-.832a10.575,10.575,0,0,1,1.9-.429c.66-.082,1.962-.231,2.132-.235l.2.351C19.388,30.279,19.019,31.826,18.842,32.523Z" transform="translate(-8.537 -21.367)"/></g><g transform="translate(70.329 6.284)"><path class="a" d="M48.432,22.294a10.969,10.969,0,0,0-5.154-.922,21.963,21.963,0,0,0-3.488.277c-.866.126-.952.153-1.485.267a1.687,1.687,0,0,0-1.265,1.336l-.353,1.45c-.2.927.324.885.567.813A17.09,17.09,0,0,1,38.965,25a12.9,12.9,0,0,1,2.708-.361,7.084,7.084,0,0,1,2.618.372,1.323,1.323,0,0,1,.87,1.309l-.044.405-.412.263c-1.653.1-2.838.25-4.259.458a13.2,13.2,0,0,0-3.66,1.006A5.681,5.681,0,0,0,34.3,30.419a5.27,5.27,0,0,0-.828,3,3.524,3.524,0,0,0,1.181,2.744,4.414,4.414,0,0,0,3.034,1.044,8.036,8.036,0,0,0,1.809-.17l1.393-.475,1.193-.656,1.08-.727.019.023-.1.466-.011.008,0,.008a.844.844,0,0,0,.767,1.08l0,.011h2.677l.044-.015A1.477,1.477,0,0,0,47.8,35.677l2.109-9.091.111-.746.061-.7A3.039,3.039,0,0,0,48.432,22.294ZM43.791,32.53l-.469.6-1.124.582a4.086,4.086,0,0,1-1.5.326,3.359,3.359,0,0,1-1.641-.315l-.563-1.078a2.255,2.255,0,0,1,.412-1.412,2.956,2.956,0,0,1,1.235-.83,10.716,10.716,0,0,1,1.9-.426c.656-.082,1.954-.235,2.122-.237l.2.351C44.335,30.288,43.963,31.829,43.791,32.53Z" transform="translate(-33.475 -21.372)"/></g><g transform="translate(52.384 1.845)"><path class="a" d="M43.917,22.15a4.463,4.463,0,0,0-1.588-1.706,7.08,7.08,0,0,0-2.506-.92,19.832,19.832,0,0,0-3.393-.265l-6.032,0a1.5,1.5,0,0,0-1.376,1.1L24.964,38.021a.855.855,0,0,0,.87,1.095l2.889,0a1.5,1.5,0,0,0,1.387-1.093l.977-4.288a1.5,1.5,0,0,1,1.387-1.095H33.3c3.532,0,6.269-.727,8.24-2.166a6.828,6.828,0,0,0,2.933-5.729A5.628,5.628,0,0,0,43.917,22.15ZM37.7,27.925a6.142,6.142,0,0,1-3.639.945h-.719a.864.864,0,0,1-.882-1.1l.874-3.742a1.467,1.467,0,0,1,1.378-1.095l.935-.006a4.67,4.67,0,0,1,2.509.559,1.923,1.923,0,0,1,.838,1.719A3.166,3.166,0,0,1,37.7,27.925Z" transform="translate(-24.934 -19.259)"/></g><g transform="translate(87.39 2.002)"><path class="a" d="M50.307,20.418a.844.844,0,0,0-.866-1.084H46.858a1.464,1.464,0,0,0-1.24.876l-.143.223-.13.571L41.733,37.421l-.118.5,0,.013a.818.818,0,0,0,.725,1.025l.044.061h2.683a1.465,1.465,0,0,0,1.244-.891l.139-.21,3.862-17.5Z" transform="translate(-41.595 -19.334)"/></g><g transform="translate(35.492 6.494)"><path class="a" d="M33.9,21.472c-.683.008-3.458,0-3.458,0a2.5,2.5,0,0,0-1.815,1.1s-4.13,7.089-4.532,7.8l-.479-.006-1.286-7.746a1.588,1.588,0,0,0-1.572-1.13l-2.584,0a.853.853,0,0,0-.863,1.1s1.962,11.167,2.355,13.795c.183,1.45-.023,1.708-.023,1.708l-2.555,4.45c-.378.605-.174,1.1.445,1.1l2.988,0a2.414,2.414,0,0,0,1.809-1.1L33.818,23.109S34.923,21.449,33.9,21.472Z" transform="translate(-16.893 -21.472)"/></g></svg>