<svg id="visa" xmlns="http://www.w3.org/2000/svg" width="55.496" height="55.496" viewBox="0 0 55.496 55.496">
  <circle id="Ellipse_49" data-name="Ellipse 49" cx="27.748" cy="27.748" r="27.748" transform="translate(0)" fill="#f3f2f2"/>
  <g id="visa-2" data-name="visa" transform="translate(4 -80.23)">
    <g id="Group_191" data-name="Group 191" transform="translate(4.43 100.23)">
      <g id="Group_190" data-name="Group 190">
        <path id="Path_758" data-name="Path 758" d="M42.21,100.23l-2.379,14.806h3.8l2.378-14.806Zm11.471,6.031c-1.329-.656-2.144-1.1-2.144-1.77.016-.61.689-1.236,2.191-1.236a6.618,6.618,0,0,1,2.833.548l.345.154.517-3.1a9.6,9.6,0,0,0-3.413-.61c-3.755,0-6.4,1.953-6.416,4.745-.031,2.061,1.893,3.2,3.333,3.89,1.471.7,1.972,1.16,1.972,1.785-.016.96-1.19,1.4-2.284,1.4a7.734,7.734,0,0,1-3.569-.763l-.5-.228-.532,3.219a11.876,11.876,0,0,0,4.241.764c3.991,0,6.588-1.923,6.621-4.9C56.888,108.534,55.873,107.283,53.681,106.261Zm13.492-5.985H64.23a1.884,1.884,0,0,0-1.988,1.191l-5.649,13.569h3.991l1.1-2.938h4.465l.57,2.95h3.52Zm-4.382,8.858c.077.007,1.532-4.8,1.532-4.8l1.158,4.8Zm-26.137-8.9-3.726,10.059-.406-1.984a11.054,11.054,0,0,0-5.259-6.012l3.412,12.727H34.7l5.979-14.789H36.653Z" transform="translate(-27.262 -100.23)" fill="#2394bc"/>
      </g>
    </g>
    <path id="Path_759" data-name="Path 759" d="M8.435,102.155a2.485,2.485,0,0,0-2.474-1.907H.061L0,100.522c4.6,1.135,8.466,4.627,9.72,7.911Z" transform="translate(0 -0.015)" fill="#efc75e"/>
  </g>
</svg>
