<svg xmlns="http://www.w3.org/2000/svg" width="100.498" height="30.937" viewBox="0 0 100.498 30.937"><defs><style>.a{fill:#9298a2;}</style></defs><g transform="translate(35.132 0.515)"><path class="a" d="M21.829,16.8,16.722,46.771h8.169L30,16.8Z" transform="translate(-16.722 -16.799)"/></g><g transform="translate(8.114 0.542)"><path class="a" d="M24.031,16.818l-8,20.44-.853-3.086C13.6,30.454,9.121,25.113,3.862,21.747l7.316,25,8.643-.015L32.685,16.812Z" transform="translate(-3.862 -16.812)"/></g><g transform="translate(0 0.258)"><path class="a" d="M16.329,19.112c-.475-1.826-1.851-2.37-3.559-2.435H.105l-.105.6c9.856,2.391,16.377,8.152,19.083,15.079Z" transform="translate(0 -16.677)"/></g><g transform="translate(48.413 0)"><path class="a" d="M39.6,22.815a15.08,15.08,0,0,1,6.114,1.147l.737.347,1.105-6.5a21.085,21.085,0,0,0-7.318-1.258c-8.072,0-13.761,4.065-13.805,9.891-.053,4.3,4.053,6.708,7.154,8.143,3.183,1.471,4.25,2.406,4.236,3.719-.025,2.006-2.538,2.927-4.885,2.927a17.146,17.146,0,0,1-7.692-1.569l-1.053-.479-1.149,6.708a25.87,25.87,0,0,0,9.1,1.6c8.587,0,14.167-4.017,14.226-10.242.036-3.406-2.143-6-6.864-8.137-2.857-1.391-4.605-2.315-4.589-3.719C34.918,24.147,36.4,22.815,39.6,22.815Z" transform="translate(-23.043 -16.554)"/></g><g transform="translate(71.168 0.548)"><path class="a" d="M56.594,16.815H50.283c-1.96,0-3.418.534-4.28,2.488L33.874,46.771h8.578s1.4-3.694,1.716-4.5c.939,0,9.274.013,10.461.013.244,1.046,1,4.49,1,4.49H63.2ZM46.52,36.133c.672-1.721,3.254-8.377,3.254-8.377-.044.082.666-1.733,1.088-2.862l.55,2.584,1.893,8.654Z" transform="translate(-33.874 -16.815)"/></g></svg>