<svg xmlns="http://www.w3.org/2000/svg" xmlns:xlink="http://www.w3.org/1999/xlink" width="116.794" height="116.793" viewBox="0 0 116.794 116.793"><defs><style>.a{fill:#fff;}.b{fill:#119c59;}.c{filter:url(#a);}</style><filter id="a" x="0" y="0" width="116.794" height="116.793" filterUnits="userSpaceOnUse"><feOffset input="SourceAlpha"/><feGaussianBlur stdDeviation="3" result="b"/><feFlood flood-opacity="0.051"/><feComposite operator="in" in2="b"/><feComposite in="SourceGraphic"/></filter></defs><g transform="translate(9 9)"><g class="c" transform="matrix(1, 0, 0, 1, -9, -9)"><path class="a" d="M98.794,49.4A49.4,49.4,0,1,0,49.4,98.8,49.4,49.4,0,0,0,98.794,49.4Z" transform="translate(9 9)"/></g><path class="b" d="M161.9,155.485c-1.109-3.174-3.368-2.673-5.816-2.135-1.462.338-7.965,2.452-18.254,14.5a95.289,95.289,0,0,0-8.941,12.025c-1.133-1.544-2.431-3.2-3.794-4.711a56.044,56.044,0,0,0-9.063-7.982,3.936,3.936,0,0,0-5.725,1.53,4.933,4.933,0,0,0,1.373,6.361,47.927,47.927,0,0,1,7.522,6.635A71.139,71.139,0,0,1,125.973,191a4.073,4.073,0,0,0,3.468,2.062,3.773,3.773,0,0,0,.713-.068,4.376,4.376,0,0,0,3.331-3.443c.01-.043,1.662-5.113,10.391-15.331,7.03-8.233,11.719-10.849,13.343-11.575l.048-.009c-.008,0,.053-.029.151-.078a4.611,4.611,0,0,1,.437-.163,1,1,0,0,1-.122.028l0-.016c.752-.364,2.159-1.036,2.19-1.051C162.038,160.386,162.727,157.856,161.9,155.485Z" transform="translate(-86.921 -123.347)"/></g></svg>