<svg xmlns="http://www.w3.org/2000/svg" width="21" height="20" viewBox="0 0 21 20"><defs><style>.a{fill:#9298a2;}</style></defs><g transform="translate(1.347 10.573)"><path class="a" d="M32,271.692v8.08a1.348,1.348,0,0,0,1.347,1.347H40.08v-9.427Z" transform="translate(-32 -271.692)"/></g><path class="a" d="M19.688,21.669H15.535a5.126,5.126,0,0,0,.732-.6,2.867,2.867,0,0,0,0-3.962,2.723,2.723,0,0,0-3.85,0c-.57.586-2.079,2.971-1.87,4.564h-.094c.207-1.593-1.3-3.978-1.87-4.564a2.725,2.725,0,0,0-3.85,0,2.871,2.871,0,0,0,0,3.962,5.22,5.22,0,0,0,.734.6H1.313A1.332,1.332,0,0,0,0,23.015v2.02a.665.665,0,0,0,.656.673H9.188V23.015h2.625v2.693h8.531A.665.665,0,0,0,21,25.035v-2.02A1.331,1.331,0,0,0,19.688,21.669ZM9.11,21.624a.424.424,0,0,1-.243.044,6.385,6.385,0,0,1-3.2-1.551,1.5,1.5,0,0,1,0-2.063,1.374,1.374,0,0,1,1.988,0C8.536,18.967,9.416,21.3,9.11,21.624Zm3.021.044c-.186,0-.241-.043-.241-.044-.306-.325.574-2.657,1.458-3.57a1.405,1.405,0,0,1,1.988,0,1.494,1.494,0,0,1,0,2.063A6.384,6.384,0,0,1,12.131,21.669Z" transform="translate(0 -16.308)"/><g transform="translate(11.573 10.573)"><path class="a" d="M288,271.692v9.427h6.733a1.347,1.347,0,0,0,1.347-1.347v-8.08Z" transform="translate(-288 -271.692)"/></g></svg>