<svg xmlns="http://www.w3.org/2000/svg" width="35.315" height="33.108" viewBox="0 0 35.315 33.108"><defs><style>.a{fill:#fff;}</style></defs><g transform="translate(11.036 26.486)"><circle class="a" cx="3.311" cy="3.311" r="3.311"/></g><g transform="translate(24.279 26.486)"><circle class="a" cx="3.311" cy="3.311" r="3.311"/></g><g transform="translate(0 0)"><path class="a" d="M35.059,20.816a1.1,1.1,0,0,0-.848-.4H8.272l-.96-3.6A1.1,1.1,0,0,0,6.246,16H1.1a1.1,1.1,0,0,0,0,2.207H5.4l5.675,21.253a1.1,1.1,0,0,0,1.066.819H29.8a1.1,1.1,0,1,0,0-2.207H12.987l-.62-2.322,19.692-.991a1.107,1.107,0,0,0,1.031-.9L35.3,21.721A1.1,1.1,0,0,0,35.059,20.816Zm-9.676,8.431H23.175v2.207a1.1,1.1,0,1,1-2.207,0V29.247H18.761a1.1,1.1,0,0,1,0-2.207h2.207V24.833a1.1,1.1,0,1,1,2.207,0V27.04h2.207a1.1,1.1,0,0,1,0,2.207Z" transform="translate(0 -16.004)"/></g></svg>